<svg width="117" height="117" viewBox="0 0 117 117" fill="none" xmlns="http://www.w3.org/2000/svg">
<g clip-path="url(#clip0_1_2)">
<path d="M38.7471 71.4502C37.4671 71.4502 36.5071 71.2582 35.8671 70.8742C35.2271 70.5542 34.7791 70.0742 34.5231 69.4342C34.3311 68.7942 34.2351 68.0262 34.2351 67.1302V8.8582C34.2351 7.8982 34.3311 7.0982 34.5231 6.4582C34.7151 5.8182 35.0991 5.3382 35.6751 5.0182C36.3151 4.6342 37.2751 4.4422 38.5551 4.4422C39.8351 4.4422 40.7631 4.6342 41.3391 5.0182C41.9791 5.3382 42.3951 5.8182 42.5871 6.4582C42.7791 7.0982 42.8751 7.8662 42.8751 8.7622V63.3862H75.0351C75.8671 63.3862 76.5711 63.4822 77.1471 63.6742C77.7231 63.8662 78.1711 64.2502 78.4911 64.8262C78.8751 65.4022 79.0671 66.2662 79.0671 67.4182C79.0671 68.5062 78.9071 69.3702 78.5871 70.0102C78.2671 70.5862 77.8191 70.9702 77.2431 71.1622C76.6671 71.3542 75.9631 71.4502 75.1311 71.4502H38.7471Z" fill="black"/>
<path d="M59.5249 110.758C57.6689 110.758 55.8449 110.534 54.0529 110.086C52.3249 109.638 50.7249 109.062 49.2529 108.358C47.7809 107.654 46.4689 106.886 45.3169 106.054C44.1649 105.222 43.2049 104.422 42.4369 103.654C41.7329 102.95 41.1249 102.31 40.6129 101.734C40.1649 101.158 39.9409 100.614 39.9409 100.102C39.9409 99.5258 40.1329 98.9498 40.5169 98.3738C40.9009 97.7338 41.3169 97.1898 41.7649 96.7418C42.4689 96.0378 43.0449 95.5898 43.4929 95.3978C44.0049 95.1418 44.4849 95.0138 44.9329 95.0138C45.8289 95.0138 46.5329 95.3018 47.0449 95.8778C47.6209 96.4538 48.4529 97.2538 49.5409 98.2778C50.1809 98.7258 51.0129 99.2698 52.0369 99.9098C53.0609 100.55 54.2449 101.126 55.5889 101.638C56.9329 102.086 58.3729 102.31 59.9089 102.31C62.0209 102.31 63.8449 101.926 65.3809 101.158C66.9169 100.39 68.1649 99.3018 69.1249 97.8938C70.1489 96.4858 70.9169 94.8538 71.4289 92.9978C71.9409 91.0778 72.1969 89.0298 72.1969 86.8538V48.5498C72.1969 47.5258 72.2929 46.6298 72.4849 45.8618C72.6769 45.0938 73.0929 44.5178 73.7329 44.1338C74.4369 43.6858 75.4289 43.4618 76.7089 43.4618C77.9249 43.4618 78.8209 43.6538 79.3969 44.0378C79.9729 44.3578 80.3569 44.8698 80.5489 45.5738C80.7409 46.2138 80.8369 46.9818 80.8369 47.8778V87.6218C80.8369 91.0138 80.3569 94.1178 79.3969 96.9338C78.5009 99.7498 77.1569 102.182 75.3649 104.23C73.5729 106.278 71.3329 107.878 68.6449 109.03C66.0209 110.182 62.9809 110.758 59.5249 110.758Z" fill="black"/>
<path d="M45.2058 82.3394C44.2787 85.6528 44.7686 86.0522 54.9576 91.2595C65.0886 85.9402 68.8944 82.8814 67.9309 79.5784C66.3097 76.2791 61.5303 77.1882 54.9578 83.8261C50.303 79.6884 46.7905 79.0224 45.2058 82.3394Z" fill="black" stroke="black" stroke-width="3"/>
<path d="M45.2801 55.3709C44.3531 52.0575 44.843 51.6581 55.032 46.4508C65.163 51.7701 68.9688 54.8289 68.0052 58.1319C66.3841 61.4312 61.6046 60.5221 55.0321 53.8842C50.3773 58.0219 46.8648 58.6879 45.2801 55.3709Z" fill="black" stroke="black" stroke-width="3"/>
</g>
<defs>
<clipPath id="clip0_1_2">
<rect width="117" height="117" fill="white"/>
</clipPath>
</defs>
</svg>
